<svg id="visual" viewBox="0 0 1920 1080" width="1920" height="1080" xmlns="http://www.w3.org/2000/svg" xmlns:xlink="http://www.w3.org/1999/xlink" version="1.1"><rect width="1920" height="1080" fill="#171717"></rect><g><g transform="translate(944 914)"><path d="M0 -84.2L72.9 -42.1L72.9 42.1L0 84.2L-72.9 42.1L-72.9 -42.1Z" fill="#A855F7"></path></g><g transform="translate(599 872)"><path d="M0 -49L42.4 -24.5L42.4 24.5L0 49L-42.4 24.5L-42.4 -24.5Z" fill="#A855F7"></path></g><g transform="translate(1117 234)"><path d="M0 -77L66.7 -38.5L66.7 38.5L0 77L-66.7 38.5L-66.7 -38.5Z" fill="#A855F7"></path></g><g transform="translate(910 554)"><path d="M0 -48L41.6 -24L41.6 24L0 48L-41.6 24L-41.6 -24Z" fill="#A855F7"></path></g><g transform="translate(1313 712)"><path d="M0 -60L52 -30L52 30L0 60L-52 30L-52 -30Z" fill="#A855F7"></path></g><g transform="translate(41 630)"><path d="M0 -57L49.4 -28.5L49.4 28.5L0 57L-49.4 28.5L-49.4 -28.5Z" fill="#A855F7"></path></g><g transform="translate(918 306)"><path d="M0 -71L61.5 -35.5L61.5 35.5L0 71L-61.5 35.5L-61.5 -35.5Z" fill="#A855F7"></path></g><g transform="translate(168 958)"><path d="M0 -23L19.9 -11.5L19.9 11.5L0 23L-19.9 11.5L-19.9 -11.5Z" fill="#A855F7"></path></g><g transform="translate(246 82)"><path d="M0 -77L66.7 -38.5L66.7 38.5L0 77L-66.7 38.5L-66.7 -38.5Z" fill="#A855F7"></path></g><g transform="translate(1532 145)"><path d="M0 -65L56.3 -32.5L56.3 32.5L0 65L-56.3 32.5L-56.3 -32.5Z" fill="#A855F7"></path></g><g transform="translate(1694 657)"><path d="M0 -35L30.3 -17.5L30.3 17.5L0 35L-30.3 17.5L-30.3 -17.5Z" fill="#A855F7"></path></g><g transform="translate(1366 379)"><path d="M0 -48L41.6 -24L41.6 24L0 48L-41.6 24L-41.6 -24Z" fill="#A855F7"></path></g></g></svg>